P3
8 5
255
185 99 0 200 107 0 208 112 0 53 99 132 0 0 0 19 3 9 51 8 24 80 12 37 
163 88 0 176 95 0 184 99 0 66 78 79 0 0 0 3 0 1 26 4 12 54 8 25 
137 74 0 149 80 0 153 83 0 11 48 79 0 0 0 0 0 0 5 1 2 28 4 13 
108 58 0 116 62 0 105 56 0 8 58 66 0 0 0 0 0 0 0 0 0 5 1 2 
72 39 0 74 40 0 32 21 2 3 39 19 0 4 2 0 0 0 0 0 0 0 0 0 
